<svg xmlns="http://www.w3.org/2000/svg" version="1.1" xmlns:xlink="http://www.w3.org/1999/xlink" xmlns:svgjs="http://svgjs.dev/svgjs" viewBox="0 0 10.043813023098219 10.535375941461398"><g transform="matrix(1,0,0,1,0.8571726248303593,8.32070331663104)"><rect width="10.535375941461398" height="10.535375941461398" x="-1.102954084011949" y="-8.32070331663104" fill="#9856ac"></rect><g><path d=" M 0.20400000000000001 0.00749999999999984 L 0.7065 0.00749999999999984 Q 0.7455 0.00749999999999984 0.77175 0.03224999999999989 Q 0.798 0.05699999999999994 0.798 0.09599999999999986 Q 0.798 0.13349999999999984 0.77175 0.15674999999999983 Q 0.7455 0.17999999999999983 0.7065 0.17999999999999983 L 0.28650000000000003 0.17999999999999983 L 0.3 0.15449999999999986 L 0.3 0.44699999999999984 L 0.28800000000000003 0.43499999999999983 L 0.639 0.43499999999999983 Q 0.678 0.43499999999999983 0.70425 0.4597499999999999 Q 0.7305 0.4844999999999998 0.7305 0.5234999999999999 Q 0.7305 0.5609999999999999 0.70425 0.5842499999999999 Q 0.678 0.6074999999999999 0.639 0.6074999999999999 L 0.2925 0.6074999999999999 L 0.3 0.5954999999999999 L 0.3 0.8984999999999999 L 0.28800000000000003 0.8849999999999999 L 0.7065 0.8849999999999999 Q 0.7455 0.8849999999999999 0.77175 0.9112499999999999 Q 0.798 0.9374999999999999 0.798 0.9719999999999999 Q 0.798 1.0094999999999998 0.77175 1.0334999999999999 Q 0.7455 1.0574999999999999 0.7065 1.0574999999999999 L 0.20400000000000001 1.0574999999999999 Q 0.165 1.0574999999999999 0.13875 1.0312499999999998 Q 0.1125 1.005 0.1125 0.9659999999999999 L 0.1125 0.09899999999999987 Q 0.1125 0.05999999999999983 0.13875 0.03374999999999995 Q 0.165 0.00749999999999984 0.20400000000000001 0.00749999999999984 M 1.6050322265624999 0.23999999999999988 Q 1.6440322265625 0.23999999999999988 1.6695322265625 0.26549999999999985 Q 1.6950322265625 0.2909999999999998 1.6950322265625 0.3314999999999999 L 1.6950322265625 0.9659999999999999 Q 1.6950322265625 1.005 1.6695322265625 1.0312499999999998 Q 1.6440322265625 1.0574999999999999 1.6050322265624999 1.0574999999999999 Q 1.5660322265625 1.0574999999999999 1.5405322265625 1.0312499999999998 Q 1.5150322265625 1.005 1.5150322265625 0.9659999999999999 L 1.5150322265625 0.8924999999999998 L 1.5480322265625 0.9059999999999999 Q 1.5480322265625 0.9254999999999999 1.5270322265625 0.9532499999999999 Q 1.5060322265625001 0.9809999999999999 1.4700322265625 1.0079999999999998 Q 1.4340322265625 1.035 1.3852822265625 1.05375 Q 1.3365322265625 1.0724999999999998 1.2795322265625 1.0724999999999998 Q 1.1760322265625 1.0724999999999998 1.0920322265625 1.01925 Q 1.0080322265625 0.9659999999999999 0.9592822265625001 0.8722499999999999 Q 0.9105322265625 0.7784999999999999 0.9105322265625 0.6569999999999998 Q 0.9105322265625 0.5339999999999999 0.9592822265625001 0.4402499999999999 Q 1.0080322265625 0.3464999999999999 1.0905322265625 0.2932499999999999 Q 1.1730322265625 0.23999999999999988 1.2735322265625 0.23999999999999988 Q 1.3380322265625 0.23999999999999988 1.3920322265625 0.25949999999999984 Q 1.4460322265625 0.2789999999999999 1.4857822265625 0.30899999999999983 Q 1.5255322265625 0.33899999999999986 1.5472822265625 0.3697499999999999 Q 1.5690322265624999 0.40049999999999986 1.5690322265624999 0.4214999999999999 L 1.5150322265625 0.44099999999999984 L 1.5150322265625 0.3314999999999999 Q 1.5150322265625 0.29249999999999987 1.5405322265625 0.2662499999999999 Q 1.5660322265625 0.23999999999999988 1.6050322265624999 0.23999999999999988 M 1.3020322265625 0.9074999999999999 Q 1.3680322265625 0.9074999999999999 1.4175322265624999 0.8744999999999998 Q 1.4670322265625 0.8414999999999999 1.4947822265625001 0.7844999999999999 Q 1.5225322265624999 0.7274999999999998 1.5225322265624999 0.6569999999999998 Q 1.5225322265624999 0.5849999999999999 1.4947822265625001 0.5279999999999999 Q 1.4670322265625 0.47099999999999986 1.4175322265624999 0.43799999999999983 Q 1.3680322265625 0.4049999999999999 1.3020322265625 0.4049999999999999 Q 1.2375322265625 0.4049999999999999 1.1880322265625 0.43799999999999983 Q 1.1385322265625 0.47099999999999986 1.1107822265625 0.5279999999999999 Q 1.0830322265625 0.5849999999999999 1.0830322265625 0.6569999999999998 Q 1.0830322265625 0.7274999999999998 1.1107822265625 0.7844999999999999 Q 1.1385322265625 0.8414999999999999 1.1880322265625 0.8744999999999998 Q 1.2375322265625 0.9074999999999999 1.3020322265625 0.9074999999999999 M 1.843510986328125 0.9329999999999998 Q 1.828510986328125 0.9119999999999999 1.830010986328125 0.8789999999999999 Q 1.831510986328125 0.8459999999999999 1.869010986328125 0.8219999999999998 Q 1.893010986328125 0.8069999999999999 1.920010986328125 0.8092499999999999 Q 1.947010986328125 0.8114999999999999 1.972510986328125 0.8369999999999999 Q 2.016010986328125 0.8804999999999998 2.064010986328125 0.9044999999999999 Q 2.112010986328125 0.9284999999999999 2.184010986328125 0.9284999999999999 Q 2.206510986328125 0.9269999999999998 2.233510986328125 0.9217499999999998 Q 2.260510986328125 0.9164999999999999 2.280760986328125 0.8977499999999998 Q 2.301010986328125 0.8789999999999999 2.301010986328125 0.8399999999999999 Q 2.301010986328125 0.8069999999999999 2.2785109863281248 0.7874999999999999 Q 2.256010986328125 0.7679999999999999 2.219260986328125 0.7545 Q 2.182510986328125 0.7409999999999999 2.137510986328125 0.7289999999999999 Q 2.0910109863281248 0.7154999999999998 2.042260986328125 0.6989999999999998 Q 1.993510986328125 0.6824999999999999 1.953010986328125 0.6562499999999999 Q 1.912510986328125 0.6299999999999999 1.887010986328125 0.5864999999999998 Q 1.861510986328125 0.5429999999999999 1.861510986328125 0.47699999999999987 Q 1.861510986328125 0.4019999999999999 1.903510986328125 0.3494999999999999 Q 1.945510986328125 0.2969999999999998 2.012260986328125 0.26849999999999985 Q 2.079010986328125 0.23999999999999988 2.152510986328125 0.23999999999999988 Q 2.199010986328125 0.23999999999999988 2.250010986328125 0.25124999999999986 Q 2.301010986328125 0.26249999999999984 2.347510986328125 0.2872499999999999 Q 2.394010986328125 0.31199999999999983 2.425510986328125 0.3524999999999999 Q 2.4420109863281247 0.3749999999999999 2.445010986328125 0.40649999999999986 Q 2.448010986328125 0.43799999999999983 2.416510986328125 0.4634999999999999 Q 2.394010986328125 0.4814999999999998 2.364010986328125 0.47924999999999984 Q 2.334010986328125 0.47699999999999987 2.3145109863281252 0.45899999999999985 Q 2.289010986328125 0.4259999999999998 2.246260986328125 0.40649999999999986 Q 2.203510986328125 0.3869999999999999 2.148010986328125 0.3869999999999999 Q 2.125510986328125 0.3869999999999999 2.099260986328125 0.3922499999999999 Q 2.073010986328125 0.39749999999999985 2.053510986328125 0.41474999999999984 Q 2.034010986328125 0.43199999999999983 2.034010986328125 0.4694999999999999 Q 2.034010986328125 0.5039999999999999 2.0565109863281252 0.5242499999999999 Q 2.079010986328125 0.5444999999999999 2.117260986328125 0.5572499999999999 Q 2.155510986328125 0.5699999999999998 2.199010986328125 0.5819999999999999 Q 2.2440109863281252 0.5939999999999999 2.290510986328125 0.6104999999999998 Q 2.337010986328125 0.6269999999999999 2.376010986328125 0.6539999999999999 Q 2.415010986328125 0.6809999999999998 2.439010986328125 0.7237499999999999 Q 2.463010986328125 0.7665 2.463010986328125 0.8324999999999999 Q 2.463010986328125 0.9089999999999999 2.418010986328125 0.9629999999999999 Q 2.373010986328125 1.017 2.305510986328125 1.0447499999999998 Q 2.238010986328125 1.0724999999999998 2.167510986328125 1.0724999999999998 Q 2.079010986328125 1.0724999999999998 1.990510986328125 1.04175 Q 1.902010986328125 1.011 1.843510986328125 0.9329999999999998 M 3.2085029296875 0.2549999999999999 Q 3.2475029296875 0.2549999999999999 3.2730029296875003 0.2812499999999999 Q 3.2985029296875 0.3074999999999999 3.2985029296875 0.3464999999999999 L 3.2985029296875 0.9839999999999999 Q 3.2985029296875 1.1219999999999999 3.2467529296875 1.2037499999999999 Q 3.1950029296875 1.2854999999999999 3.1080029296875002 1.3215 Q 3.0210029296875 1.3575 2.9130029296875 1.3575 Q 2.8650029296875 1.3575 2.8110029296875 1.3499999999999999 Q 2.7570029296875 1.3424999999999998 2.7225029296875 1.3275 Q 2.6775029296875 1.3079999999999998 2.6602529296875 1.2787499999999998 Q 2.6430029296875 1.2494999999999998 2.6535029296875 1.2165 Q 2.6670029296875 1.1729999999999998 2.6970029296874998 1.15725 Q 2.7270029296875 1.1415 2.7600029296875 1.1535 Q 2.7840029296875 1.1609999999999998 2.8230029296875 1.17675 Q 2.8620029296875 1.1925 2.9130029296875 1.1925 Q 2.9820029296875 1.1925 3.0277529296875 1.1737499999999998 Q 3.0735029296875 1.1549999999999998 3.0967529296875 1.11075 Q 3.1200029296875 1.0664999999999998 3.1200029296875 0.9899999999999999 L 3.1200029296875 0.8894999999999998 L 3.1515029296875 0.9254999999999999 Q 3.1260029296875 0.9749999999999999 3.0877529296875 1.00725 Q 3.0495029296875 1.0394999999999999 2.9970029296875 1.0559999999999998 Q 2.9445029296875 1.0724999999999998 2.8770029296875 1.0724999999999998 Q 2.7975029296875 1.0724999999999998 2.7382529296875 1.03575 Q 2.6790029296875 0.9989999999999999 2.6460029296875 0.9337499999999999 Q 2.6130029296875 0.8684999999999998 2.6130029296875 0.7844999999999999 L 2.6130029296875 0.3464999999999999 Q 2.6130029296875 0.3074999999999999 2.6385029296875 0.2812499999999999 Q 2.6640029296875 0.2549999999999999 2.7030029296875 0.2549999999999999 Q 2.7420029296875 0.2549999999999999 2.7675029296875 0.2812499999999999 Q 2.7930029296875 0.3074999999999999 2.7930029296875 0.3464999999999999 L 2.7930029296875 0.7304999999999999 Q 2.7930029296875 0.8279999999999998 2.8357529296875 0.8677499999999999 Q 2.8785029296875 0.9074999999999999 2.9550029296875 0.9074999999999999 Q 3.0075029296875 0.9074999999999999 3.0435029296875 0.8872499999999999 Q 3.0795029296875 0.8669999999999999 3.0990029296875 0.8272499999999998 Q 3.1185029296874998 0.7874999999999999 3.1185029296874998 0.7304999999999999 L 3.1185029296874998 0.3464999999999999 Q 3.1185029296874998 0.3074999999999999 3.1440029296875 0.2812499999999999 Q 3.1695029296875 0.2549999999999999 3.2085029296875 0.2549999999999999 M 4.243465576171875 0.058499999999999885 Q 4.282465576171875 0.07799999999999985 4.289215576171875 0.11999999999999988 Q 4.295965576171875 0.1619999999999998 4.267465576171875 0.1964999999999999 Q 4.247965576171875 0.22349999999999992 4.217215576171875 0.2264999999999998 Q 4.186465576171875 0.22949999999999982 4.154965576171875 0.2144999999999999 Q 4.118965576171875 0.19799999999999984 4.079215576171875 0.18899999999999983 Q 4.0394655761718745 0.17999999999999983 3.995965576171875 0.17999999999999983 Q 3.914965576171875 0.17999999999999983 3.851215576171875 0.2054999999999999 Q 3.787465576171875 0.23099999999999987 3.742465576171875 0.2782499999999999 Q 3.697465576171875 0.3254999999999999 3.674215576171875 0.3899999999999999 Q 3.650965576171875 0.4544999999999999 3.650965576171875 0.5324999999999999 Q 3.650965576171875 0.6239999999999999 3.677215576171875 0.6914999999999999 Q 3.703465576171875 0.7589999999999999 3.749965576171875 0.8039999999999998 Q 3.796465576171875 0.8489999999999999 3.859465576171875 0.8707499999999999 Q 3.922465576171875 0.8924999999999998 3.995965576171875 0.8924999999999998 Q 4.036465576171875 0.8924999999999998 4.076965576171875 0.8849999999999999 Q 4.117465576171875 0.8775 4.154965576171875 0.8579999999999999 Q 4.186465576171875 0.8429999999999999 4.217215576171875 0.8474999999999999 Q 4.247965576171875 0.8519999999999999 4.268965576171875 0.8789999999999999 Q 4.2989655761718755 0.9164999999999999 4.290715576171875 0.9562499999999998 Q 4.282465576171875 0.9959999999999999 4.244965576171875 1.0139999999999998 Q 4.2059655761718755 1.0334999999999999 4.164715576171875 1.04625 Q 4.123465576171875 1.059 4.081465576171875 1.06575 Q 4.0394655761718745 1.0724999999999998 3.995965576171875 1.0724999999999998 Q 3.887965576171875 1.0724999999999998 3.791215576171875 1.0379999999999998 Q 3.6944655761718748 1.0034999999999998 3.618715576171875 0.9359999999999999 Q 3.542965576171875 0.8684999999999998 3.499465576171875 0.7672499999999999 Q 3.455965576171875 0.6659999999999999 3.455965576171875 0.5324999999999999 Q 3.455965576171875 0.4169999999999999 3.4957155761718752 0.3194999999999999 Q 3.535465576171875 0.22199999999999986 3.608215576171875 0.15074999999999983 Q 3.680965576171875 0.0794999999999999 3.779965576171875 0.03974999999999995 Q 3.878965576171875 -2.220446049250313e-16 3.995965576171875 -2.220446049250313e-16 Q 4.061965576171875 -2.220446049250313e-16 4.124965576171875 0.014999999999999902 Q 4.187965576171875 0.029999999999999805 4.243465576171875 0.058499999999999885 M 4.52398681640625 1.0574999999999999 Q 4.48498681640625 1.0574999999999999 4.45948681640625 1.0312499999999998 Q 4.43398681640625 1.005 4.43398681640625 0.9659999999999999 L 4.43398681640625 0.3464999999999999 Q 4.43398681640625 0.3074999999999999 4.45948681640625 0.2812499999999999 Q 4.48498681640625 0.2549999999999999 4.52398681640625 0.2549999999999999 Q 4.56298681640625 0.2549999999999999 4.58848681640625 0.2812499999999999 Q 4.61398681640625 0.3074999999999999 4.61398681640625 0.3464999999999999 L 4.61398681640625 0.4874999999999998 L 4.60348681640625 0.3869999999999999 Q 4.61998681640625 0.35099999999999987 4.64623681640625 0.3232499999999998 Q 4.67248681640625 0.2954999999999999 4.70548681640625 0.27674999999999983 Q 4.73848681640625 0.2579999999999999 4.77598681640625 0.2489999999999999 Q 4.81348681640625 0.23999999999999988 4.85098681640625 0.23999999999999988 Q 4.89598681640625 0.23999999999999988 4.92673681640625 0.26549999999999985 Q 4.95748681640625 0.2909999999999998 4.95748681640625 0.3254999999999999 Q 4.95748681640625 0.3749999999999999 4.93198681640625 0.3967499999999998 Q 4.90648681640625 0.41849999999999987 4.87648681640625 0.41849999999999987 Q 4.84798681640625 0.41849999999999987 4.82473681640625 0.4079999999999999 Q 4.80148681640625 0.39749999999999985 4.77148681640625 0.39749999999999985 Q 4.74448681640625 0.39749999999999985 4.71673681640625 0.4102499999999999 Q 4.68898681640625 0.4229999999999998 4.66573681640625 0.44999999999999984 Q 4.64248681640625 0.47699999999999987 4.62823681640625 0.5167499999999998 Q 4.61398681640625 0.5564999999999999 4.61398681640625 0.6104999999999998 L 4.61398681640625 0.9659999999999999 Q 4.61398681640625 1.005 4.58848681640625 1.0312499999999998 Q 4.56298681640625 1.0574999999999999 4.52398681640625 1.0574999999999999 M 5.680518310546875 0.2549999999999999 Q 5.719518310546875 0.2549999999999999 5.745018310546875 0.2812499999999999 Q 5.770518310546875 0.3074999999999999 5.770518310546875 0.3464999999999999 L 5.770518310546875 0.9839999999999999 Q 5.770518310546875 1.1219999999999999 5.718768310546875 1.2037499999999999 Q 5.667018310546875 1.2854999999999999 5.580018310546875 1.3215 Q 5.493018310546875 1.3575 5.385018310546875 1.3575 Q 5.337018310546875 1.3575 5.283018310546875 1.3499999999999999 Q 5.229018310546875 1.3424999999999998 5.194518310546875 1.3275 Q 5.149518310546875 1.3079999999999998 5.132268310546875 1.2787499999999998 Q 5.115018310546875 1.2494999999999998 5.125518310546875 1.2165 Q 5.139018310546875 1.1729999999999998 5.169018310546875 1.15725 Q 5.199018310546875 1.1415 5.232018310546875 1.1535 Q 5.256018310546875 1.1609999999999998 5.295018310546875 1.17675 Q 5.334018310546875 1.1925 5.385018310546875 1.1925 Q 5.454018310546875 1.1925 5.499768310546875 1.1737499999999998 Q 5.545518310546875 1.1549999999999998 5.568768310546875 1.11075 Q 5.592018310546875 1.0664999999999998 5.592018310546875 0.9899999999999999 L 5.592018310546875 0.8894999999999998 L 5.623518310546875 0.9254999999999999 Q 5.598018310546875 0.9749999999999999 5.559768310546875 1.00725 Q 5.521518310546875 1.0394999999999999 5.469018310546875 1.0559999999999998 Q 5.416518310546875 1.0724999999999998 5.349018310546875 1.0724999999999998 Q 5.269518310546875 1.0724999999999998 5.210268310546875 1.03575 Q 5.151018310546875 0.9989999999999999 5.118018310546875 0.9337499999999999 Q 5.085018310546875 0.8684999999999998 5.085018310546875 0.7844999999999999 L 5.085018310546875 0.3464999999999999 Q 5.085018310546875 0.3074999999999999 5.110518310546875 0.2812499999999999 Q 5.136018310546875 0.2549999999999999 5.175018310546875 0.2549999999999999 Q 5.214018310546875 0.2549999999999999 5.239518310546875 0.2812499999999999 Q 5.265018310546875 0.3074999999999999 5.265018310546875 0.3464999999999999 L 5.265018310546875 0.7304999999999999 Q 5.265018310546875 0.8279999999999998 5.307768310546875 0.8677499999999999 Q 5.3505183105468745 0.9074999999999999 5.427018310546875 0.9074999999999999 Q 5.479518310546875 0.9074999999999999 5.5155183105468755 0.8872499999999999 Q 5.551518310546875 0.8669999999999999 5.571018310546875 0.8272499999999998 Q 5.590518310546875 0.7874999999999999 5.590518310546875 0.7304999999999999 L 5.590518310546875 0.3464999999999999 Q 5.590518310546875 0.3074999999999999 5.616018310546875 0.2812499999999999 Q 5.641518310546875 0.2549999999999999 5.680518310546875 0.2549999999999999 M 6.38098095703125 0.23999999999999988 Q 6.48598095703125 0.23999999999999988 6.56923095703125 0.2932499999999999 Q 6.6524809570312495 0.3464999999999999 6.70123095703125 0.4394999999999999 Q 6.74998095703125 0.5324999999999999 6.74998095703125 0.6554999999999999 Q 6.74998095703125 0.7784999999999999 6.70123095703125 0.8722499999999999 Q 6.6524809570312495 0.9659999999999999 6.57073095703125 1.01925 Q 6.48898095703125 1.0724999999999998 6.38698095703125 1.0724999999999998 Q 6.32698095703125 1.0724999999999998 6.27448095703125 1.053 Q 6.22198095703125 1.0334999999999999 6.18223095703125 1.0034999999999998 Q 6.14248095703125 0.9734999999999999 6.12073095703125 0.9427499999999999 Q 6.09898095703125 0.9119999999999999 6.09898095703125 0.8909999999999999 L 6.14548095703125 0.8714999999999999 L 6.14548095703125 1.2659999999999998 Q 6.14548095703125 1.305 6.11998095703125 1.3312499999999998 Q 6.09448095703125 1.3575 6.05548095703125 1.3575 Q 6.01648095703125 1.3575 5.99098095703125 1.3319999999999999 Q 5.96548095703125 1.3064999999999998 5.96548095703125 1.2659999999999998 L 5.96548095703125 0.3464999999999999 Q 5.96548095703125 0.3074999999999999 5.99098095703125 0.2812499999999999 Q 6.01648095703125 0.2549999999999999 6.05548095703125 0.2549999999999999 Q 6.09448095703125 0.2549999999999999 6.11998095703125 0.2812499999999999 Q 6.14548095703125 0.3074999999999999 6.14548095703125 0.3464999999999999 L 6.14548095703125 0.4199999999999998 L 6.11998095703125 0.40649999999999986 Q 6.11998095703125 0.3869999999999999 6.14098095703125 0.35924999999999985 Q 6.16198095703125 0.3314999999999999 6.19798095703125 0.30374999999999985 Q 6.23398095703125 0.2759999999999999 6.28123095703125 0.2579999999999999 Q 6.32848095703125 0.23999999999999988 6.38098095703125 0.23999999999999988 M 6.35848095703125 0.4049999999999999 Q 6.29248095703125 0.4049999999999999 6.24298095703125 0.43799999999999983 Q 6.19348095703125 0.47099999999999986 6.16573095703125 0.5272499999999999 Q 6.13798095703125 0.5834999999999999 6.13798095703125 0.6554999999999999 Q 6.13798095703125 0.7259999999999999 6.16573095703125 0.78375 Q 6.19348095703125 0.8414999999999999 6.24298095703125 0.8744999999999998 Q 6.29248095703125 0.9074999999999999 6.35848095703125 0.9074999999999999 Q 6.42448095703125 0.9074999999999999 6.47323095703125 0.8744999999999998 Q 6.52198095703125 0.8414999999999999 6.54973095703125 0.78375 Q 6.57748095703125 0.7259999999999999 6.57748095703125 0.6554999999999999 Q 6.57748095703125 0.5834999999999999 6.54973095703125 0.5272499999999999 Q 6.52198095703125 0.47099999999999986 6.47323095703125 0.43799999999999983 Q 6.42448095703125 0.4049999999999999 6.35848095703125 0.4049999999999999 M 6.908959716796875 0.2699999999999999 L 7.264459716796875 0.2699999999999999 Q 7.300459716796875 0.2699999999999999 7.324459716796875 0.2939999999999998 Q 7.348459716796875 0.31799999999999984 7.348459716796875 0.35399999999999987 Q 7.348459716796875 0.38849999999999985 7.324459716796875 0.41174999999999984 Q 7.300459716796875 0.43499999999999983 7.264459716796875 0.43499999999999983 L 6.908959716796875 0.43499999999999983 Q 6.872959716796875 0.43499999999999983 6.848959716796875 0.4109999999999999 Q 6.824959716796875 0.3869999999999999 6.824959716796875 0.35099999999999987 Q 6.824959716796875 0.3164999999999999 6.848959716796875 0.2932499999999999 Q 6.872959716796875 0.2699999999999999 6.908959716796875 0.2699999999999999 M 7.069459716796875 0.0824999999999999 Q 7.108459716796875 0.0824999999999999 7.133209716796875 0.1087499999999999 Q 7.157959716796875 0.1349999999999999 7.157959716796875 0.17399999999999982 L 7.157959716796875 0.8414999999999999 Q 7.157959716796875 0.8624999999999998 7.166209716796875 0.8759999999999999 Q 7.174459716796875 0.8894999999999998 7.188709716796875 0.8954999999999999 Q 7.202959716796875 0.9014999999999999 7.219459716796875 0.9014999999999999 Q 7.237459716796875 0.9014999999999999 7.252459716796875 0.8947499999999999 Q 7.267459716796875 0.8879999999999999 7.286959716796875 0.8879999999999999 Q 7.307959716796875 0.8879999999999999 7.325209716796875 0.9074999999999999 Q 7.342459716796875 0.9269999999999998 7.342459716796875 0.9614999999999999 Q 7.342459716796875 1.0034999999999998 7.296709716796875 1.0305 Q 7.250959716796875 1.0574999999999999 7.198459716796875 1.0574999999999999 Q 7.166959716796875 1.0574999999999999 7.128709716796875 1.05225 Q 7.090459716796875 1.047 7.056709716796875 1.0267499999999998 Q 7.022959716796875 1.0065 7.000459716796875 0.9644999999999999 Q 6.977959716796875 0.9224999999999999 6.977959716796875 0.8489999999999999 L 6.977959716796875 0.17399999999999982 Q 6.977959716796875 0.1349999999999999 7.004209716796875 0.1087499999999999 Q 7.030459716796875 0.0824999999999999 7.069459716796875 0.0824999999999999 M 8.276947265625001 0.6569999999999998 Q 8.276947265625001 0.7799999999999998 8.222197265625 0.8737499999999999 Q 8.167447265625 0.9674999999999999 8.075197265625 1.0199999999999998 Q 7.9829472656250005 1.0724999999999998 7.868947265625 1.0724999999999998 Q 7.754947265625 1.0724999999999998 7.662697265625 1.0199999999999998 Q 7.570447265625 0.9674999999999999 7.515697265625 0.8737499999999999 Q 7.460947265625 0.7799999999999998 7.460947265625 0.6569999999999998 Q 7.460947265625 0.5339999999999999 7.515697265625 0.4402499999999999 Q 7.570447265625 0.3464999999999999 7.662697265625 0.2932499999999999 Q 7.754947265625 0.23999999999999988 7.868947265625 0.23999999999999988 Q 7.9829472656250005 0.23999999999999988 8.075197265625 0.2932499999999999 Q 8.167447265625 0.3464999999999999 8.222197265625 0.4402499999999999 Q 8.276947265625001 0.5339999999999999 8.276947265625001 0.6569999999999998 M 8.096947265625 0.6569999999999998 Q 8.096947265625 0.5804999999999998 8.066197265625 0.5242499999999999 Q 8.035447265625 0.46799999999999986 7.9836972656250005 0.4364999999999999 Q 7.931947265625 0.4049999999999999 7.868947265625 0.4049999999999999 Q 7.805947265625 0.4049999999999999 7.754197265625 0.4364999999999999 Q 7.702447265625 0.46799999999999986 7.671697265625 0.5242499999999999 Q 7.640947265625 0.5804999999999998 7.640947265625 0.6569999999999998 Q 7.640947265625 0.7319999999999999 7.671697265625 0.7882499999999999 Q 7.702447265625 0.8444999999999999 7.754197265625 0.8759999999999999 Q 7.805947265625 0.9074999999999999 7.868947265625 0.9074999999999999 Q 7.931947265625 0.9074999999999999 7.9836972656250005 0.8759999999999999 Q 8.035447265625 0.8444999999999999 8.066197265625 0.7882499999999999 Q 8.096947265625 0.7319999999999999 8.096947265625 0.6569999999999998" fill="#603a2f" fill-rule="nonzero"></path></g><g></g><g clip-path="url(#SvgjsClipPath1004)"><g clip-path="url(#SvgjsClipPath100197940d1e-0e02-40bf-b9b9-075d320ecffe)"><path d=" M 5.192071122296343 -0.5675201039001694 L 5.353273636584123 -0.45441530949312714 L 5.215744218800144 -0.41533591209002907 C 4.884696631183517 -0.30824333266807713 4.531479000809362 -0.2503757634365673 4.164733886718751 -0.2503757634365673 C 2.2791529620192756 -0.2503757634365673 0.7505473020596379 -1.7789814233962042 0.7505473020596379 -3.6641865846591117 C 0.7505473020596379 -4.271044534716834 0.9087437088548709 -4.841077667990868 1.1864328884788071 -5.334830823641548 L 1.1864328884788071 -5.177010180282883 C 0.9692416221423582 -4.740373066990578 0.846742741821109 -4.248122965086171 0.846742741821109 -3.727314842002578 C 0.846742741821109 -1.9289110345869362 2.304704875705916 -0.4709489007021297 4.1034844465581255 -0.4709489007021297 C 4.453320206003166 -0.4709489007021297 4.7903800086048856 -0.526186125877663 5.106021295322215 -0.6280180171876575 L 5.192071122296343 -0.5675201039001694 Z" fill="#603a2f" transform="matrix(1,0,0,1,0,0)" fill-rule="nonzero"></path></g><g clip-path="url(#SvgjsClipPath100197940d1e-0e02-40bf-b9b9-075d320ecffe)"><path d=" M 7.578544707941294 -3.6638108212225435 C 7.578544707941294 -3.478183683557828 7.573284019829339 -3.3203630401991635 7.547356342706129 -3.1151962038329 L 7.526689353694877 -2.9855578182168543 L 7.421851354892335 -3.0967837954410546 L 7.318892173272633 -3.206130955482415 L 7.318892173272633 -3.206130955482415 C 7.345947140705548 -3.375600265374696 7.360226151295141 -3.5495787365057954 7.360226151295141 -3.7265633151294404 C 7.360226151295141 -5.524967122545082 5.902264017410334 -6.9833050198664575 4.103484446558125 -6.9833050198664575 C 3.5033902383586306 -6.9833050198664575 2.9412481372525296 -6.820975215268973 2.4583921212623294 -6.538025347533082 L 2.421191541042073 -6.599650551130274 C 2.9318540513383233 -6.90326740787742 3.5278148617355662 -7.077621642445088 4.164733886718749 -7.077621642445088 C 6.049939047981656 -7.077621642445088 7.578544707941294 -5.549391745922019 7.578544707941294 -3.6638108212225435 Z" fill="#603a2f" transform="matrix(1,0,0,1,0,0)" fill-rule="nonzero"></path></g><g clip-path="url(#SvgjsClipPath100197940d1e-0e02-40bf-b9b9-075d320ecffe)"><path d=" M 7.360226151295141 -3.7269390785660095 C 7.360226151295141 -3.5495787365057967 7.345947140705548 -3.375976028811265 7.318892173272635 -3.206506718918984 C 7.0483424989434935 -3.185088203034594 6.835660393845868 -2.9588786142205077 6.835660393845868 -2.683444015215981 C 6.835660393845868 -2.5797333067231447 6.865721468771327 -2.482786340088536 6.917952586454313 -2.401621437789794 L 6.917576823017746 -2.401245674353226 C 6.8908976190214 -2.405379072155476 6.863466888151918 -2.407633652774887 6.835284630409298 -2.407633652774887 C 6.54557102081518 -2.407633652774887 6.311094636396592 -2.1727815049197314 6.311094636396592 -1.8834436587621788 C 6.311094636396592 -1.800024175844027 6.330634335098141 -1.7211138541646953 6.36520457126242 -1.6512218549630013 C 6.339652657575777 -1.6549794893286833 6.313724980452569 -1.6572340699480925 6.287045776456224 -1.6572340699480925 C 5.997332166862103 -1.6572340699480925 5.762480019006948 -1.4223819220929368 5.762480019006948 -1.1330440759353841 C 5.762480019006948 -1.127407624386862 5.762480019006948 -1.12139540940177 5.762855782443515 -1.115758957853246 C 5.7203945141113035 -1.127031860950293 5.675678665159682 -1.1330440759353841 5.629835525898355 -1.1330440759353841 C 5.346509894725894 -1.1330440759353841 5.115791144672991 -0.9087133043041398 5.106021295322215 -0.6280180171876575 L 5.106397058758783 -0.6280180171876575 C 4.7903800086048856 -0.5258103624410939 4.453695969439734 -0.4709489007021297 4.103860209994694 -0.4709489007021297 C 2.305456402579053 -0.4709489007021297 0.8471185052576777 -1.9289110345869362 0.8471185052576777 -3.7273148420025777 C 0.8471185052576777 -4.248122965086171 0.9692416221423588 -4.740373066990578 1.186808651915375 -5.177010180282884 L 1.186808651915375 -4.712942336121095 L 2.287795521060345 -4.712942336121095 L 2.287795521060345 -5.84962673174005 L 2.8758652992896554 -5.84962673174005 L 2.458767884698899 -6.5380253475330825 C 2.9416239006890987 -6.820975215268974 3.5037660017951997 -6.9833050198664575 4.103860209994693 -6.9833050198664575 C 5.902264017410334 -6.9833050198664575 7.360226151295141 -5.525342885981651 7.360226151295141 -3.7269390785660095 Z" fill="#d1aa5d" transform="matrix(1,0,0,1,0,0)" fill-rule="nonzero"></path></g><g clip-path="url(#SvgjsClipPath100197940d1e-0e02-40bf-b9b9-075d320ecffe)"><path d=" M 5.659520837387245 -3.267004632206473 C 5.612926171252782 -3.395139964076246 5.538149247375701 -3.5029840703713333 5.433687012009727 -3.5879066070357584 C 5.297660647972021 -3.698005293950255 5.111657746870738 -3.7694003468982222 4.872296437776763 -3.7953280240214315 L 4.872296437776763 -3.8111100883572977 C 4.900478695519382 -3.8205041742715036 4.929036716698568 -3.831401313931983 4.9572189744411865 -3.8438015073387355 C 4.986904285930079 -3.8569532276186242 5.01658959741897 -3.8712322382082176 5.045523382034726 -3.887765829417221 C 5.2860119814384054 -4.022664903145222 5.489675764058397 -4.27217182502654 5.489675764058397 -4.660711218438109 C 5.489675764058397 -4.798240636222089 5.47163911910312 -4.9275032584015666 5.427299033588067 -5.042486869991452 C 5.361164668752056 -5.215713814249414 5.236411207811397 -5.357000866399076 5.026735210206314 -5.4468083277388875 C 4.940309619795617 -5.483633144522575 4.839605018795326 -5.511815402265194 4.7227425900226 -5.52985204722047 L 4.7227425900226 -6.22952356611055 L 4.3018875410661614 -6.22952356611055 L 4.3018875410661614 -5.556907014653383 L 3.9873735446585363 -5.556907014653383 L 3.9873735446585363 -6.22952356611055 L 3.5665184957020966 -6.22952356611055 L 3.5665184957020966 -5.556907014653383 L 2.6778379682181876 -5.556907014653383 L 2.6778379682181876 -5.151834030032811 L 2.9964853624280625 -5.116512266995396 C 3.0216615126781354 -5.1123788691931455 3.039322394196843 -5.1082454713908945 3.0517225876035954 -5.101105966096098 C 3.0742683937976905 -5.087954245816209 3.0791533184730775 -5.065032676185545 3.0791533184730775 -5.014304612248832 L 3.0791533184730775 -2.426421824603299 C 3.0791533184730775 -2.3516449007262166 3.0675046519394615 -2.3362385998269195 2.9964853624280625 -2.3242141698567353 L 2.713159731255603 -2.292650041185002 L 2.6778379682181876 -2.2888924068193193 L 2.6778379682181876 -1.895468088732362 L 3.5665184957020966 -1.895468088732362 L 3.5665184957020966 -1.2228515372751962 L 3.9873735446585363 -1.2228515372751962 L 3.9873735446585363 -1.895468088732362 L 4.3018875410661614 -1.895468088732362 L 4.3018875410661614 -1.2228515372751962 L 4.7227425900226 -1.2228515372751962 L 4.7227425900226 -1.918765421799594 C 5.316448819800434 -1.9972999800423583 5.717764170055324 -2.280625611214818 5.717764170055324 -2.9017625718621343 C 5.717764170055324 -3.037413172463272 5.6986002347903435 -3.1591605259113846 5.659520837387245 -3.267004632206473 Z M 4.718984955656918 -4.727221346710689 C 4.7227425900226 -4.713693862994232 4.726500224388282 -4.6997906158412075 4.7298820953173975 -4.685135841815045 C 4.74002770810474 -4.640419992863423 4.746791449962968 -4.590819219236415 4.746791449962968 -4.534454703751177 C 4.746791449962968 -4.463811177676346 4.738900417795035 -4.40068292033288 4.719360719093487 -4.3454456951573475 C 4.660365859552271 -4.152679052197836 4.499163345264492 -4.066253461787139 4.298505670137047 -4.034689333115406 C 4.223728746259965 -4.02304066658179 4.141060790214951 -4.018907268779539 4.054635199804253 -4.018907268779539 L 3.853977524676808 -4.018907268779539 L 3.853977524676808 -5.006413580080899 L 4.132793994610449 -5.006413580080899 C 4.191788854151664 -5.006413580080899 4.247026079327196 -5.006413580080899 4.298129906700478 -4.998522547912965 C 4.401840615193315 -4.990631515745032 4.493151130279399 -4.970716053606915 4.565673473537072 -4.9275032584015666 C 4.636692763048471 -4.886169280379059 4.689675407604595 -4.8222894961624565 4.718984955656918 -4.727221346710689 Z M 4.298129906700478 -2.442203888939166 L 3.85773515904249 -2.442203888939166 L 3.85773515904249 -3.515760027214654 L 4.302263304502729 -3.515760027214654 C 4.463465818790508 -3.5120023928489714 4.613019666544671 -3.484195898542921 4.723118353459167 -3.40941897466584 C 4.741530761851012 -3.3970187812590877 4.758440116496583 -3.3827397706694944 4.7745979442690185 -3.3673334697701955 C 4.824950244769164 -3.3188599864528907 4.8640296421722615 -3.255731729109425 4.8873269752394926 -3.1745668268106835 C 4.90310903957536 -3.11970536507172 4.911751598616429 -3.056577107728253 4.911751598616429 -2.9844305279071497 C 4.907993964250747 -2.7642331540781564 4.841108072541599 -2.6304613706598587 4.718984955656918 -2.547793414614844 C 4.616777300910353 -2.4779014154131493 4.471356850958442 -2.450094921107098 4.298129906700478 -2.442203888939166 Z" fill="#814f2f" transform="matrix(1,0,0,1,0,0)" fill-rule="nonzero"></path></g><g clip-path="url(#SvgjsClipPath100197940d1e-0e02-40bf-b9b9-075d320ecffe)"><path d=" M 5.610295827196805 -3.214021987650349 C 5.582489332890754 -3.360569727911966 5.524246000222676 -3.48645047916233 5.433687012009727 -3.587906607035757 C 5.3307278303900265 -3.70326598206221 5.185683143874684 -3.7870612284169294 4.996674135280855 -3.8344074214245287 C 4.983898178437533 -3.8377892923536425 4.970746458157644 -3.840795399846189 4.957594737877756 -3.8438015073387346 C 4.910248544870156 -3.853947120126078 4.860272007806579 -3.862213915730579 4.8076651266870245 -3.868226130715671 L 4.8076651266870245 -3.8840081950515377 C 5.10677282219535 -3.9824582154324193 5.409262388632791 -4.245868384466762 5.409262388632791 -4.713693862994232 C 5.409262388632791 -4.810265066192272 5.399868302718584 -4.90307863502463 5.378449786834194 -4.9895042254353275 C 5.331103593826595 -5.18001628777543 5.224386777841212 -5.340467275190072 5.027110973642881 -5.4468083277388875 C 4.942939963851593 -5.492275703563645 4.8422353628513015 -5.527973230037628 4.723118353459167 -5.551646326541428 C 4.706960525686732 -5.555028197470542 4.690802697914298 -5.558034304963089 4.673893343268727 -5.560664649019066 C 4.66863265515677 -5.5614161758922025 4.6633719670448155 -5.562543466201907 4.658111278932861 -5.5632949930750435 L 4.658111278932861 -6.243426813263575 L 4.248904896510037 -6.243426813263575 L 4.248904896510037 -5.586592326142275 L 3.942281932270346 -5.586592326142275 L 3.942281932270346 -6.243426813263575 L 3.533075549847523 -6.243426813263575 L 3.533075549847523 -5.586592326142275 L 2.6639347210651625 -5.586592326142275 L 2.6639347210651625 -5.193168008055318 L 2.6778379682181876 -5.191664954309045 L 2.9746910831071047 -5.157846245017903 C 3.0295525448460694 -5.148827922540265 3.046837662928209 -5.1394338366260595 3.0513468241670276 -5.101105966096098 C 3.0528498779133004 -5.08983306299905 3.0532256413498686 -5.076305579282592 3.0532256413498686 -5.05977198807359 L 3.0532256413498686 -2.5350174577715237 C 3.0532256413498686 -2.489174318510196 3.0487164801110493 -2.465501222006398 3.0295525448460694 -2.4523495017265082 C 3.0175281148758852 -2.444082706122007 3.000242996793746 -2.439949308319756 2.9743153196705365 -2.4369432008272103 L 2.6635589576285943 -2.401621437789795 L 2.6635589576285943 -2.0157123884342028 L 3.532699786410955 -2.0157123884342028 L 3.532699786410955 -1.358877901312903 L 3.94153040539721 -1.358877901312903 L 3.94153040539721 -2.0157123884342028 L 4.248153369636901 -2.0157123884342028 L 4.248153369636901 -1.358877901312903 L 4.657359752059725 -1.358877901312903 L 4.657359752059725 -2.039385484938003 C 5.235283917501692 -2.1141624088150843 5.6287082355886495 -2.393354642185294 5.6287082355886495 -2.998709538496742 C 5.629459762461785 -3.074613752683529 5.623071784040125 -3.146384569068064 5.610295827196805 -3.214021987650349 Z M 4.0877023822222585 -5.0439899237377235 L 4.0877023822222585 -5.047747558103406 C 4.142563843961224 -5.047747558103406 4.197801069136755 -5.047747558103406 4.248904896510037 -5.039856525935473 C 4.380046335872356 -5.029710913148129 4.489393495913717 -4.999274074786102 4.565673473537071 -4.9275032584015666 C 4.606255924686442 -4.889551151308173 4.637444289921607 -4.840326141117732 4.657735515496292 -4.776070593464562 C 4.670135708903045 -4.735488142315191 4.677650977634409 -4.687390422434454 4.680281321690387 -4.6317774338223545 C 4.6810328485635235 -4.617498423232761 4.681408612000092 -4.6024678857700305 4.681408612000092 -4.587061584870733 C 4.681408612000092 -4.516418058795902 4.673517579832159 -4.457423199254686 4.657735515496292 -4.4021859740791545 C 4.598740655955077 -4.213552728921893 4.44129577603298 -4.130884772876877 4.248529133073468 -4.099320644205145 C 4.173752209196388 -4.087671977671529 4.095217650953623 -4.083538579869279 4.012549694908609 -4.083538579869279 L 3.8118920197811637 -4.083538579869279 L 3.8118920197811637 -5.0439899237377235 L 4.0877023822222585 -5.0439899237377235 Z M 3.8126435466543005 -3.5965491660768274 L 4.249280659946606 -3.5965491660768274 C 4.406725539868702 -3.5924157682745768 4.552145989820615 -3.564985037405094 4.65848704236943 -3.494341511330264 C 4.705833235377028 -3.461650092348826 4.7452883962166945 -3.4199403508897506 4.774973707705587 -3.3677092332067637 C 4.811798524489276 -3.3030779221170246 4.833968567246802 -3.222288783254851 4.838477728485621 -3.1219599456911284 C 4.839229255358758 -3.1088082254112397 4.839229255358758 -3.0952807416947827 4.839229255358758 -3.0813774945417567 C 4.843362653161009 -2.8611801207127643 4.776100998015292 -2.7315417350967177 4.658487042369431 -2.652631413417385 C 4.556279387622867 -2.585745521708237 4.418374206402319 -2.5541813930365036 4.249280659946607 -2.5504237586708216 L 3.8126435466543005 -2.5504237586708216 L 3.8126435466543005 -3.5965491660768274 Z" fill="#ffffff" transform="matrix(1,0,0,1,0,0)" fill-rule="nonzero"></path></g><g clip-path="url(#SvgjsClipPath100197940d1e-0e02-40bf-b9b9-075d320ecffe)"><path d=" M 6.835660393845865 -2.683068251779413 C 6.835660393845865 -2.5793575432865765 6.865345705334757 -2.4824105766519677 6.917576823017743 -2.401245674353226 L 7.132513508734782 -2.194951547677257 C 7.0814096813615 -2.274989159666294 7.0524758967457455 -2.370433072554629 7.0524758967457455 -2.4722649638646246 C 7.0524758967457455 -2.7428146381937637 7.261400367477693 -2.9648908292055998 7.526689353694877 -2.9855578182168525 L 7.318892173272635 -3.206506718918983 C 7.0483424989434935 -3.185088203034595 6.835660393845865 -2.9585028507839395 6.835660393845865 -2.683068251779413 Z" fill="#754f46" transform="matrix(1,0,0,1,0,0)" fill-rule="nonzero"></path></g><g clip-path="url(#SvgjsClipPath100197940d1e-0e02-40bf-b9b9-075d320ecffe)"><path d=" M 6.590286869766799 -1.4584552120034893 L 6.365204571262417 -1.6512218549630013 C 6.33213738884441 -1.6572340699480925 6.312973453579429 -1.6572340699480925 6.286294249583084 -1.6572340699480925 C 5.996580639988965 -1.6572340699480925 5.762480019006945 -1.4220061586563686 5.762480019006945 -1.1326683124988168 C 5.762480019006945 -1.127031860950293 5.762480019006945 -1.12139540940177 5.762855782443513 -1.115758957853246 L 5.998083693735237 -0.9327621642445081 L 5.998083693735237 -0.9327621642445081 C 5.997707930298669 -0.9383986157930329 5.998083693735237 -0.9436593039049876 5.998083693735237 -0.9492957554535115 C 5.998083693735237 -1.2337486769356758 6.228426680351573 -1.4640916635520131 6.512879601833737 -1.4640916635520131 C 6.5391830423935176 -1.4640916635520131 6.565110719516726 -1.4622128463691721 6.590286869766799 -1.4584552120034893 L 6.36482880782585 -1.6512218549630013 L 6.590286869766799 -1.4584552120034893 Z" fill="#754f46" transform="matrix(1,0,0,1,0,0)" fill-rule="nonzero"></path></g><g clip-path="url(#SvgjsClipPath100197940d1e-0e02-40bf-b9b9-075d320ecffe)"><path d=" M 7.132513508734782 -2.194951547677258 L 6.917576823017743 -2.401245674353227 C 6.890897619021398 -2.405379072155477 6.863091124715348 -2.407633652774887 6.834908866972728 -2.407633652774887 C 6.54519525737861 -2.407633652774887 6.310718872960022 -2.1724057414831632 6.310718872960022 -1.8830678953256115 C 6.310718872960022 -1.7996484124074605 6.329882808225001 -1.721113854164697 6.36445304438928 -1.6512218549630022 L 6.58991110633023 -1.4584552120034902 C 6.55571663360252 -1.5272199208954795 6.536552698337538 -1.6046271888285393 6.536552698337538 -1.6865436180004174 C 6.536552698337538 -1.9709965394825826 6.766895684953874 -2.201339526098919 7.051348606436041 -2.201339526098919 C 7.0795308641786585 -2.2013395260989173 7.106210068175004 -2.199084945479509 7.132513508734782 -2.194951547677258 L 7.132513508734782 -2.194951547677258 Z" fill="#754f46" transform="matrix(1,0,0,1,0,0)" fill-rule="nonzero"></path></g><g clip-path="url(#SvgjsClipPath100197940d1e-0e02-40bf-b9b9-075d320ecffe)"><path d=" M 5.867318017809486 -0.9496715188900797 C 5.9124096301976765 -0.9496715188900797 5.956373952276162 -0.9436593039049876 5.9980836937352375 -0.9327621642445081 L 5.762480019006945 -1.1161347212898134 C 5.7200187506747335 -1.127407624386862 5.675302901723111 -1.1330440759353841 5.629459762461784 -1.1330440759353841 C 5.3461341312893245 -1.1330440759353841 5.11541538123642 -0.9087133043041398 5.105645531885645 -0.6280180171876575 L 5.353273636584121 -0.45441530949312625 C 5.362667722498328 -0.7294741450610855 5.589253074748982 -0.9496715188900797 5.867318017809486 -0.9496715188900797 Z" fill="#754f46" transform="matrix(1,0,0,1,0,0)" fill-rule="nonzero"></path></g><g clip-path="url(#SvgjsClipPath100197940d1e-0e02-40bf-b9b9-075d320ecffe)"><path d=" M 2.631619065520293 -5.9875319129605975 L 1.7373020864878597 -7.46353069180068 L 0.8429851074554264 -5.9875319129605975 L 1.3243380696993539 -5.9875319129605975 L 1.3243380696993539 -4.850095990468507 L 2.1502661032763655 -4.850095990468507 L 2.1502661032763655 -5.9875319129605975 Z" fill="#37d137" transform="matrix(1,0,0,1,0,0)" fill-rule="nonzero"></path></g></g></g><defs><clipPath id="SvgjsClipPath1004"><path d=" M 0.750923065496206 -7.46353069180068 h 6.827621642445088 v 7.21353069180068 h -6.827621642445088 Z"></path></clipPath><clipPath id="SvgjsClipPath100197940d1e-0e02-40bf-b9b9-075d320ecffe"><path d=" M 0.7509230654962055 -7.46353069180068 L 7.578544707941294 -7.46353069180068 L 7.578544707941294 -0.25 L 0.7509230654962048 -0.25 Z"></path></clipPath></defs></svg>